<svg width="160" height="124" viewBox="0 0 160 124" fill="none" xmlns="http://www.w3.org/2000/svg"><path d="M8 .75h132A7.25 7.25 0 0 1 147.25 8v108a7.25 7.25 0 0 1-7.25 7.25H8A7.25 7.25 0 0 1 .75 116V8A7.25 7.25 0 0 1 8 .75Z" fill="#fff" stroke="url(#audg9lkeea)" stroke-width="1.5"/><path d="M15 62a1 1 0 1 1-2 0 1 1 0 0 1 2 0Z" fill="url(#8lnugqlwvb)"/><path d="M15 50a1 1 0 1 1-2 0 1 1 0 0 1 2 0Z" fill="url(#s2tga9crcc)"/><path d="M15 38a1 1 0 1 1-2 0 1 1 0 0 1 2 0Z" fill="url(#ha2dsil5zd)"/><path d="M15 26a1 1 0 1 1-2 0 1 1 0 0 1 2 0Z" fill="url(#0pp9igwyce)"/><path d="M15 74a1 1 0 1 1-2 0 1 1 0 0 1 2 0Z" fill="url(#3pdynmhd0f)"/><path d="M15 86a1 1 0 1 1-2 0 1 1 0 0 1 2 0Z" fill="url(#5wpe5q84fg)"/><path d="M15 98a1 1 0 1 1-2 0 1 1 0 0 1 2 0Z" fill="url(#cau1zgec4h)"/><path d="M15 110a1 1 0 1 1-2 0 1 1 0 0 1 2 0Z" fill="url(#8ab0aq560i)"/><path d="M27 62a1 1 0 1 1-2 0 1 1 0 0 1 2 0Z" fill="url(#ri9sg07jvj)"/><path d="M39 62a1 1 0 1 1-2 0 1 1 0 0 1 2 0Z" fill="url(#e2tzz4ewek)"/><path d="M51 62a1 1 0 1 1-2 0 1 1 0 0 1 2 0Z" fill="url(#rfcp4blkkl)"/><path d="M63 62a1 1 0 1 1-2 0 1 1 0 0 1 2 0Z" fill="url(#knh8em4gmm)"/><path d="M75 62a1 1 0 1 1-2 0 1 1 0 0 1 2 0Z" fill="url(#s4zuufe0xn)"/><path d="M87 62a1 1 0 1 1-2 0 1 1 0 0 1 2 0Z" fill="url(#n0ghkpqn0o)"/><path d="M99 62a1 1 0 1 1-2 0 1 1 0 0 1 2 0Z" fill="url(#b7xzvvianp)"/><path d="M111 62a1 1 0 1 1-2 0 1 1 0 0 1 2 0Z" fill="url(#9ut7rrlyhq)"/><path d="M123 62a1 1 0 1 1-2 0 1 1 0 0 1 2 0Z" fill="url(#rmzc1rog5r)"/><path d="M135 62a1 1 0 1 1-2 0 1 1 0 0 1 2 0Z" fill="url(#97wxgcp1ps)"/><path d="M27 50a1 1 0 1 1-2 0 1 1 0 0 1 2 0Z" fill="url(#65hmal041t)"/><path d="M39 50a1 1 0 1 1-2 0 1 1 0 0 1 2 0Z" fill="url(#66osk7z7pu)"/><path d="M51 50a1 1 0 1 1-2 0 1 1 0 0 1 2 0Z" fill="url(#2ptn0859sv)"/><path d="M63 50a1 1 0 1 1-2 0 1 1 0 0 1 2 0Z" fill="url(#x3c3rx82kw)"/><path d="M75 50a1 1 0 1 1-2 0 1 1 0 0 1 2 0Z" fill="url(#wf52gsu6wx)"/><path d="M87 50a1 1 0 1 1-2 0 1 1 0 0 1 2 0Z" fill="url(#vzrt5xk9ay)"/><path d="M99 50a1 1 0 1 1-2 0 1 1 0 0 1 2 0Z" fill="url(#vuapr8k23z)"/><path d="M111 50a1 1 0 1 1-2 0 1 1 0 0 1 2 0Z" fill="url(#3lbh1q253A)"/><path d="M123 50a1 1 0 1 1-2 0 1 1 0 0 1 2 0Z" fill="url(#mtn6ouvj6B)"/><path d="M135 50a1 1 0 1 1-2 0 1 1 0 0 1 2 0Z" fill="url(#4owa029q9C)"/><path d="M27 38a1 1 0 1 1-2 0 1 1 0 0 1 2 0Z" fill="url(#u2c3y6s63D)"/><path d="M39 38a1 1 0 1 1-2 0 1 1 0 0 1 2 0Z" fill="url(#0jdmpwgfcE)"/><path d="M51 38a1 1 0 1 1-2 0 1 1 0 0 1 2 0Z" fill="url(#nmoacqi8oF)"/><path d="M63 38a1 1 0 1 1-2 0 1 1 0 0 1 2 0Z" fill="url(#fup46cl0iG)"/><path d="M75 38a1 1 0 1 1-2 0 1 1 0 0 1 2 0Z" fill="url(#xyp0voz2aH)"/><path d="M87 38a1 1 0 1 1-2 0 1 1 0 0 1 2 0Z" fill="url(#ughkfr8biI)"/><path d="M99 38a1 1 0 1 1-2 0 1 1 0 0 1 2 0Z" fill="url(#3f15h7f32J)"/><path d="M111 38a1 1 0 1 1-2 0 1 1 0 0 1 2 0Z" fill="url(#mk4ez7vuaK)"/><path d="M123 38a1 1 0 1 1-2 0 1 1 0 0 1 2 0Z" fill="url(#n338ullmfL)"/><path d="M135 38a1 1 0 1 1-2 0 1 1 0 0 1 2 0Z" fill="url(#t1hu6st92M)"/><path d="M27 26a1 1 0 1 1-2 0 1 1 0 0 1 2 0Z" fill="url(#zxbe703qqN)"/><path d="M39 26a1 1 0 1 1-2 0 1 1 0 0 1 2 0Z" fill="url(#fcocc25z4O)"/><path d="M51 26a1 1 0 1 1-2 0 1 1 0 0 1 2 0Z" fill="url(#j604m9781P)"/><path d="M63 26a1 1 0 1 1-2 0 1 1 0 0 1 2 0Z" fill="url(#sqt2ftl2vQ)"/><path d="M75 26a1 1 0 1 1-2 0 1 1 0 0 1 2 0Z" fill="url(#ahtia49q1R)"/><path d="M87 26a1 1 0 1 1-2 0 1 1 0 0 1 2 0Z" fill="url(#z7hmmfe92S)"/><path d="M99 26a1 1 0 1 1-2 0 1 1 0 0 1 2 0Z" fill="url(#6o2d19vdjT)"/><path d="M111 26a1 1 0 1 1-2 0 1 1 0 0 1 2 0Z" fill="url(#dj8qk33taU)"/><path d="M123 26a1 1 0 1 1-2 0 1 1 0 0 1 2 0Z" fill="url(#wtksobfdnV)"/><path d="M135 26a1 1 0 1 1-2 0 1 1 0 0 1 2 0Z" fill="url(#v1a386q6xW)"/><path d="M27 74a1 1 0 1 1-2 0 1 1 0 0 1 2 0Z" fill="url(#va59wk6j2X)"/><path d="M39 74a1 1 0 1 1-2 0 1 1 0 0 1 2 0Z" fill="url(#tuc25jgqsY)"/><path d="M51 74a1 1 0 1 1-2 0 1 1 0 0 1 2 0Z" fill="url(#edbya7kg8Z)"/><path d="M63 74a1 1 0 1 1-2 0 1 1 0 0 1 2 0Z" fill="url(#6jlspoqu7aa)"/><path d="M75 74a1 1 0 1 1-2 0 1 1 0 0 1 2 0Z" fill="url(#8q27rjz95ab)"/><path d="M87 74a1 1 0 1 1-2 0 1 1 0 0 1 2 0Z" fill="url(#hpfsnblbuac)"/><path d="M99 74a1 1 0 1 1-2 0 1 1 0 0 1 2 0Z" fill="url(#qnxf5ir4lad)"/><path d="M111 74a1 1 0 1 1-2 0 1 1 0 0 1 2 0Z" fill="url(#hip5226riae)"/><path d="M123 74a1 1 0 1 1-2 0 1 1 0 0 1 2 0Z" fill="url(#9f0sv0mvcaf)"/><path d="M135 74a1 1 0 1 1-2 0 1 1 0 0 1 2 0Z" fill="url(#klrz0f15hag)"/><path d="M27 86a1 1 0 1 1-2 0 1 1 0 0 1 2 0Z" fill="url(#inzuxwv6qah)"/><path d="M39 86a1 1 0 1 1-2 0 1 1 0 0 1 2 0Z" fill="url(#gcfhlnw25ai)"/><path d="M51 86a1 1 0 1 1-2 0 1 1 0 0 1 2 0Z" fill="url(#1ynsa92poaj)"/><path d="M63 86a1 1 0 1 1-2 0 1 1 0 0 1 2 0Z" fill="url(#p75qz9omcak)"/><path d="M75 86a1 1 0 1 1-2 0 1 1 0 0 1 2 0Z" fill="url(#ak5somqm7al)"/><path d="M87 86a1 1 0 1 1-2 0 1 1 0 0 1 2 0Z" fill="url(#dtd5j7ebfam)"/><path d="M99 86a1 1 0 1 1-2 0 1 1 0 0 1 2 0Z" fill="url(#5b1kgovl9an)"/><path d="M111 86a1 1 0 1 1-2 0 1 1 0 0 1 2 0Z" fill="url(#un4bl2zu5ao)"/><path d="M123 86a1 1 0 1 1-2 0 1 1 0 0 1 2 0Z" fill="url(#01yjgls3wap)"/><path d="M135 86a1 1 0 1 1-2 0 1 1 0 0 1 2 0Z" fill="url(#szefzjzz4aq)"/><path d="M27 98a1 1 0 1 1-2 0 1 1 0 0 1 2 0Z" fill="url(#2duj9dr2war)"/><path d="M39 98a1 1 0 1 1-2 0 1 1 0 0 1 2 0Z" fill="url(#obzcqky7aas)"/><path d="M51 98a1 1 0 1 1-2 0 1 1 0 0 1 2 0Z" fill="url(#1aw7adkhdat)"/><path d="M63 98a1 1 0 1 1-2 0 1 1 0 0 1 2 0Z" fill="url(#kqvc5yd74au)"/><path d="M75 98a1 1 0 1 1-2 0 1 1 0 0 1 2 0Z" fill="url(#wjwmi8wgxav)"/><path d="M87 98a1 1 0 1 1-2 0 1 1 0 0 1 2 0Z" fill="url(#vdzmo79t8aw)"/><path d="M99 98a1 1 0 1 1-2 0 1 1 0 0 1 2 0Z" fill="url(#u8ykjubanax)"/><path d="M111 98a1 1 0 1 1-2 0 1 1 0 0 1 2 0Z" fill="url(#80zt9qeniay)"/><path d="M123 98a1 1 0 1 1-2 0 1 1 0 0 1 2 0Z" fill="url(#j5243gzfxaz)"/><path d="M135 98a1 1 0 1 1-2 0 1 1 0 0 1 2 0Z" fill="url(#yrw3kw9v7aA)"/><path d="M27 110a1 1 0 1 1-2 0 1 1 0 0 1 2 0Z" fill="url(#kp1j18p39aB)"/><path d="M39 110a1 1 0 1 1-2 0 1 1 0 0 1 2 0Z" fill="url(#0bw0gihqoaC)"/><path d="M51 110a1 1 0 1 1-2 0 1 1 0 0 1 2 0Z" fill="url(#dh03wkixnaD)"/><path d="M63 110a1 1 0 1 1-2 0 1 1 0 0 1 2 0Z" fill="url(#3gw5ysj5vaE)"/><path d="M75 110a1 1 0 1 1-2 0 1 1 0 0 1 2 0Z" fill="url(#ncie6aik9aF)"/><path d="M87 110a1 1 0 1 1-2 0 1 1 0 0 1 2 0Z" fill="url(#zsha232b4aG)"/><path d="M99 110a1 1 0 1 1-2 0 1 1 0 0 1 2 0Z" fill="url(#glmbe7284aH)"/><path d="M111 110a1 1 0 1 1-2 0 1 1 0 0 1 2 0Z" fill="url(#ngm0ffn84aI)"/><path d="M123 110a1 1 0 1 1-2 0 1 1 0 0 1 2 0Z" fill="url(#5zpux0judaJ)"/><path d="M135 110a1 1 0 1 1-2 0 1 1 0 0 1 2 0Z" fill="url(#pu2ejv97gaK)"/><g filter="url(#6j9j16zllaL)"><rect x="110" y="25" width="50" height="38" rx="6" fill="#fff"/><path d="M139.631 40.41c.04-.262.143-.485 0-.663-.093-.011-.099-.027-.181-.033-.902-.067-1.23.17-1.389.397-.581.831.492 2.74.976 3.61.125.223.215.384.256.485.043.104.093.205.148.303.333-.709.247-1.428.163-2.126-.041-.346-.084-.704-.073-1.048.011-.353.056-.644.1-.926Z" fill="#C4B5E3"/><path d="M142.198 36.915c-.906-1.157-2.184-1.761-3.8-1.797-.638-.014-.837.04-1.253.127.968.428 1.564.913 2.05 1.48.89 1.035 1.271 2.308 1.307 2.69a.44.44 0 0 1-.01.15 5.57 5.57 0 0 1-.082 1.08c-.041.265-.083.54-.093.86-.01.3.029.622.07.962.092.77.151 1.422-.284 2.263-.053.055 0 .178.06.055 2.109-3.421 2.715-7 2.035-7.87Zm-13.7 10.801c.102.034.41.136.857-.4a37.538 37.538 0 0 1 1.411-1.606 2.795 2.795 0 0 1-.198-.187c-.613-.64-.962-1.613-.836-2.519.137-.974.174-1.792.147-2.254v-.006a4.822 4.822 0 0 1-.013-.277c-.004-.168-.209-2.907 1.384-4.516l.024-.023.018-.018c-.971-.316-3.152-1.001-4.621.041-.904.64-1.318 1.833-1.233 3.543.027.54.37 2.47.955 4.387.676 2.216 1.444 3.614 2.105 3.835Z" fill="#C4B5E3"/><path d="M130.518 43.16c-.103.736.126 1.293.621 1.809.215.224.407.39.624.492.544.258.578.14.739-.316.039-.112.082-.227.126-.345l.042-.113c.053-.143.116-.282.182-.429.321-.713.66-1.39.304-3.442-.089-.41-.303-.65-.654-.73-.769-.176-1.614.295-1.847.501l.009.163v.01c.029.482-.002 1.37-.146 2.4Zm.248 4.594c.081.055.219.122.373.16.744.187 1.782.2 2.493-.797.085-.118.059-.27.036-.35-.048-.17-.168-.323-.291-.374-.151-.063-.235-.098-.418.107-.122.137-.211.25-.289.349-.341.432-.497.579-1.507.787a1.823 1.823 0 0 0-.397.118Z" fill="#C4B5E3"/><path d="M134.464 51.748c.288.72.726 1.351 1.962 1.086 1.192-.255 1.616-.684 1.815-1.837.15-.872.446-3.34.488-3.867-.031-.624.23-1.013.38-1.134.15-.12.496-.17.302-.411a3.795 3.795 0 0 1-.613-.988 6.625 6.625 0 0 0-.227-.427c-.581-1.042-1.79-3.21-1.009-4.327.359-.514 1.068-.72 2.11-.613-.139-.412-.486-1.175-1.127-1.933-.744-.879-2.062-1.934-4.118-1.968-1.043-.017-1.9.303-2.543.952-1.021 1.03-1.294 2.658-1.366 3.529.047-.027.098-.054.154-.082.259-.131.778-.36 1.345-.419.947-.098 1.571.324 1.758 1.189.499 2.308.193 3.353-.143 4.099l-.002.004c-.061.137-.119.266-.165.39l-.042.112c-.054.144-.105.282-.15.413-.071.157-.071.247.239.308a1.2 1.2 0 0 1 .233.076c.282.117.363.376.46.713.015.054.027.109.034.164a.262.262 0 0 1 .012.089c-.065 2.318.027 4.416.213 4.882Zm5.745-4.531c.513-.024 1.053-.137 1.376-.286a3.11 3.11 0 0 0 .794-.513l-.012.002c-1.147.237-1.959.204-2.415-.096a1.095 1.095 0 0 1-.078-.057c-.038.013-.078.024-.118.035-.258.073-.502.141-.47.796.068.056.356.145.923.119Z" fill="#C4B5E3"/><path d="M132.153 40.664c-.248-.035-.472-.003-.586.083a.217.217 0 0 0-.089.143c-.014.102.058.215.102.273a.764.764 0 0 0 .486.304.553.553 0 0 0 .078.005c.3 0 .572-.234.596-.406.03-.216-.283-.36-.587-.402Zm6.635-.392c.258-.038.531.009.553.17.154.155-.043.186-.134.287a.618.618 0 0 1-.355.206.434.434 0 0 1-.065.005c-.255 0-.471-.216-.488-.343-.021-.163.23-.287.489-.325Z" fill="#fff"/><rect x="110.75" y="25.75" width="48.5" height="36.5" rx="5.25" stroke="url(#fisteos9waM)" stroke-width="1.5"/></g><g filter="url(#4lbapwgrmaN)"><rect x="49" y="25" width="50" height="38" rx="6" fill="#fff"/><g clip-path="url(#saa0r3b1uaO)"><path fill-rule="evenodd" clip-rule="evenodd" d="M74 34c-5.525 0-10 4.475-10 10a9.994 9.994 0 0 0 6.838 9.487c.5.088.687-.212.687-.474 0-.238-.013-1.026-.013-1.863-2.512.462-3.162-.612-3.362-1.175-.113-.288-.6-1.175-1.025-1.413-.35-.187-.85-.65-.013-.662.788-.012 1.35.725 1.538 1.025.9 1.513 2.337 1.088 2.912.825.088-.65.35-1.087.638-1.337-2.225-.25-4.55-1.113-4.55-4.938 0-1.087.387-1.988 1.025-2.688-.1-.25-.45-1.274.1-2.65 0 0 .837-.262 2.75 1.026a9.28 9.28 0 0 1 2.5-.338c.85 0 1.7.112 2.5.337 1.912-1.3 2.75-1.024 2.75-1.024.55 1.375.2 2.4.1 2.65.638.7 1.025 1.587 1.025 2.687 0 3.837-2.338 4.688-4.563 4.938.363.312.675.912.675 1.85 0 1.337-.012 2.412-.012 2.75 0 .262.188.575.688.474A10.016 10.016 0 0 0 84 44c0-5.525-4.475-10-10-10Z" fill="#C4B5E3"/></g><rect x="49.75" y="25.75" width="48.5" height="36.5" rx="5.25" stroke="url(#fgwx5vzmgaP)" stroke-width="1.5"/></g><g filter="url(#4am8r5ov8aQ)"><rect x="49" y="73" width="50" height="38" rx="6" fill="#fff"/><g clip-path="url(#yeppd788aaR)" fill="#C4B5E3"><path d="M79.44 92.93c-1.688.724-3.434 1.473-4.034 1.789-1.156.594-1.797.594-2.703.156-.446-.215-2.067-.888-3.724-1.575-1.712-.71-3.463-1.436-3.995-1.69-.456-.219-.717-.407-.78-.582v1.91c0 .203.265.406.78.656.532.254 2.283.98 3.995 1.69 1.657.688 3.278 1.36 3.724 1.575.906.438 1.547.438 2.703-.156.6-.316 2.346-1.064 4.034-1.788 1.568-.672 3.087-1.323 3.591-1.587.531-.281.766-.5.766-.703v-1.912c-.035.18-.288.381-.766.63-.504.264-2.023.915-3.59 1.587Z"/><path d="M83.031 94.578c-.504.264-2.023.915-3.59 1.587-1.69.724-3.435 1.472-4.035 1.788-1.156.61-1.797.594-2.703.157-.446-.216-2.067-.888-3.724-1.576-1.712-.71-3.463-1.436-3.995-1.69-.466-.226-.728-.42-.78-.601v1.93c0 .202.265.405.78.655.533.255 2.285.977 3.999 1.684 1.655.683 3.275 1.351 3.72 1.566.906.438 1.547.453 2.703-.156.6-.316 2.346-1.064 4.034-1.788 1.568-.672 3.087-1.324 3.591-1.587.531-.266.766-.484.766-.687v-1.912c-.035.18-.288.38-.766.63Z"/><path fill-rule="evenodd" clip-rule="evenodd" d="M64.938 87.031c-.51.196-.76.38-.75.578v1.985c0 .203.28.406.796.656.57.272 2.536 1.085 4.357 1.838 1.526.631 2.949 1.22 3.362 1.412.906.438 1.547.438 2.703-.156.6-.316 2.346-1.065 4.034-1.788 1.569-.673 3.087-1.324 3.591-1.587.531-.281.766-.485.75-.688v-1.863c.098-.234-.167-.432-.781-.652-.478-.177-1.927-.745-3.433-1.336a313.22 313.22 0 0 0-4.004-1.555c-1.032-.375-1.438-.36-2.657.078-1.219.422-6.953 2.672-7.969 3.078Zm11.624-.953-1.687.188-.39.906-.61-1.016-1.953-.171 1.453-.532-.438-.812 1.376.531 1.28-.422-.343.844 1.313.484Zm-2.171 4.438-3.172-1.313 4.547-.687-1.375 2ZM70 88.469c1.338 0 2.422-.42 2.422-.938 0-.517-1.084-.937-2.422-.937s-2.422.42-2.422.937c0 .518 1.084.938 2.422.938Zm5.61-.953 2.968-1.188 2.688 1.063-2.688 1.062-.297.125-2.672-1.062Z"/></g><rect x="49.75" y="73.75" width="48.5" height="36.5" rx="5.25" stroke="url(#k88jkc1ckaS)" stroke-width="1.5"/></g><g filter="url(#i7xx7eb9kaT)"><rect x="110" y="73" width="50" height="38" rx="6" fill="#fff"/><path d="M136 85.583a1 1 0 0 0-2 0h2Zm-2 12.834a1 1 0 0 0 2 0h-2ZM128.583 91a1 1 0 0 0 0 2v-2Zm12.834 2a1 1 0 0 0 0-2v2ZM134 85.583v12.834h2V85.583h-2ZM128.583 93h12.834v-2h-12.834v2Z" fill="#C4B5E3"/><rect x="110.75" y="73.75" width="48.5" height="36.5" rx="5.25" stroke="url(#p0xc24an0aU)" stroke-width="1.5"/></g><path d="M13 14a1 1 0 0 1 1-1h21a1 1 0 1 1 0 2H14a1 1 0 0 1-1-1Z" fill="#EEDDEF"/><defs><linearGradient id="audg9lkeea" x1="0" y1="124" x2="139.737" y2="-8.701" gradientUnits="userSpaceOnUse"><stop stop-color="#E3DFEC"/><stop offset="1" stop-color="#FCDAF2"/></linearGradient><linearGradient id="8lnugqlwvb" x1="53.5" y1="25" x2="53.5" y2="111" gradientUnits="userSpaceOnUse"><stop stop-color="#ECDEEF"/><stop offset="1" stop-color="#E5DFED"/></linearGradient><linearGradient id="s2tga9crcc" x1="53.5" y1="25" x2="53.5" y2="111" gradientUnits="userSpaceOnUse"><stop stop-color="#ECDEEF"/><stop offset="1" stop-color="#E5DFED"/></linearGradient><linearGradient id="ha2dsil5zd" x1="53.5" y1="25" x2="53.5" y2="111" gradientUnits="userSpaceOnUse"><stop stop-color="#ECDEEF"/><stop offset="1" stop-color="#E5DFED"/></linearGradient><linearGradient id="0pp9igwyce" x1="53.5" y1="25" x2="53.5" y2="111" gradientUnits="userSpaceOnUse"><stop stop-color="#ECDEEF"/><stop offset="1" stop-color="#E5DFED"/></linearGradient><linearGradient id="3pdynmhd0f" x1="53.5" y1="25" x2="53.5" y2="111" gradientUnits="userSpaceOnUse"><stop stop-color="#ECDEEF"/><stop offset="1" stop-color="#E5DFED"/></linearGradient><linearGradient id="5wpe5q84fg" x1="53.5" y1="25" x2="53.5" y2="111" gradientUnits="userSpaceOnUse"><stop stop-color="#ECDEEF"/><stop offset="1" stop-color="#E5DFED"/></linearGradient><linearGradient id="cau1zgec4h" x1="53.5" y1="25" x2="53.5" y2="111" gradientUnits="userSpaceOnUse"><stop stop-color="#ECDEEF"/><stop offset="1" stop-color="#E5DFED"/></linearGradient><linearGradient id="8ab0aq560i" x1="53.5" y1="25" x2="53.5" y2="111" gradientUnits="userSpaceOnUse"><stop stop-color="#ECDEEF"/><stop offset="1" stop-color="#E5DFED"/></linearGradient><linearGradient id="ri9sg07jvj" x1="53.5" y1="25" x2="53.5" y2="111" gradientUnits="userSpaceOnUse"><stop stop-color="#ECDEEF"/><stop offset="1" stop-color="#E5DFED"/></linearGradient><linearGradient id="e2tzz4ewek" x1="53.5" y1="25" x2="53.5" y2="111" gradientUnits="userSpaceOnUse"><stop stop-color="#ECDEEF"/><stop offset="1" stop-color="#E5DFED"/></linearGradient><linearGradient id="rfcp4blkkl" x1="53.5" y1="25" x2="53.5" y2="111" gradientUnits="userSpaceOnUse"><stop stop-color="#ECDEEF"/><stop offset="1" stop-color="#E5DFED"/></linearGradient><linearGradient id="knh8em4gmm" x1="53.5" y1="25" x2="53.5" y2="111" gradientUnits="userSpaceOnUse"><stop stop-color="#ECDEEF"/><stop offset="1" stop-color="#E5DFED"/></linearGradient><linearGradient id="s4zuufe0xn" x1="53.5" y1="25" x2="53.5" y2="111" gradientUnits="userSpaceOnUse"><stop stop-color="#ECDEEF"/><stop offset="1" stop-color="#E5DFED"/></linearGradient><linearGradient id="n0ghkpqn0o" x1="53.5" y1="25" x2="53.5" y2="111" gradientUnits="userSpaceOnUse"><stop stop-color="#ECDEEF"/><stop offset="1" stop-color="#E5DFED"/></linearGradient><linearGradient id="b7xzvvianp" x1="53.5" y1="25" x2="53.5" y2="111" gradientUnits="userSpaceOnUse"><stop stop-color="#ECDEEF"/><stop offset="1" stop-color="#E5DFED"/></linearGradient><linearGradient id="9ut7rrlyhq" x1="53.5" y1="25" x2="53.5" y2="111" gradientUnits="userSpaceOnUse"><stop stop-color="#ECDEEF"/><stop offset="1" stop-color="#E5DFED"/></linearGradient><linearGradient id="rmzc1rog5r" x1="53.5" y1="25" x2="53.5" y2="111" gradientUnits="userSpaceOnUse"><stop stop-color="#ECDEEF"/><stop offset="1" stop-color="#E5DFED"/></linearGradient><linearGradient id="97wxgcp1ps" x1="53.5" y1="25" x2="53.5" y2="111" gradientUnits="userSpaceOnUse"><stop stop-color="#ECDEEF"/><stop offset="1" stop-color="#E5DFED"/></linearGradient><linearGradient id="65hmal041t" x1="53.5" y1="25" x2="53.5" y2="111" gradientUnits="userSpaceOnUse"><stop stop-color="#ECDEEF"/><stop offset="1" stop-color="#E5DFED"/></linearGradient><linearGradient id="66osk7z7pu" x1="53.5" y1="25" x2="53.5" y2="111" gradientUnits="userSpaceOnUse"><stop stop-color="#ECDEEF"/><stop offset="1" stop-color="#E5DFED"/></linearGradient><linearGradient id="2ptn0859sv" x1="53.5" y1="25" x2="53.5" y2="111" gradientUnits="userSpaceOnUse"><stop stop-color="#ECDEEF"/><stop offset="1" stop-color="#E5DFED"/></linearGradient><linearGradient id="x3c3rx82kw" x1="53.5" y1="25" x2="53.5" y2="111" gradientUnits="userSpaceOnUse"><stop stop-color="#ECDEEF"/><stop offset="1" stop-color="#E5DFED"/></linearGradient><linearGradient id="wf52gsu6wx" x1="53.5" y1="25" x2="53.5" y2="111" gradientUnits="userSpaceOnUse"><stop stop-color="#ECDEEF"/><stop offset="1" stop-color="#E5DFED"/></linearGradient><linearGradient id="vzrt5xk9ay" x1="53.5" y1="25" x2="53.5" y2="111" gradientUnits="userSpaceOnUse"><stop stop-color="#ECDEEF"/><stop offset="1" stop-color="#E5DFED"/></linearGradient><linearGradient id="vuapr8k23z" x1="53.5" y1="25" x2="53.5" y2="111" gradientUnits="userSpaceOnUse"><stop stop-color="#ECDEEF"/><stop offset="1" stop-color="#E5DFED"/></linearGradient><linearGradient id="3lbh1q253A" x1="53.5" y1="25" x2="53.5" y2="111" gradientUnits="userSpaceOnUse"><stop stop-color="#ECDEEF"/><stop offset="1" stop-color="#E5DFED"/></linearGradient><linearGradient id="mtn6ouvj6B" x1="53.5" y1="25" x2="53.5" y2="111" gradientUnits="userSpaceOnUse"><stop stop-color="#ECDEEF"/><stop offset="1" stop-color="#E5DFED"/></linearGradient><linearGradient id="4owa029q9C" x1="53.5" y1="25" x2="53.5" y2="111" gradientUnits="userSpaceOnUse"><stop stop-color="#ECDEEF"/><stop offset="1" stop-color="#E5DFED"/></linearGradient><linearGradient id="u2c3y6s63D" x1="53.5" y1="25" x2="53.5" y2="111" gradientUnits="userSpaceOnUse"><stop stop-color="#ECDEEF"/><stop offset="1" stop-color="#E5DFED"/></linearGradient><linearGradient id="0jdmpwgfcE" x1="53.5" y1="25" x2="53.5" y2="111" gradientUnits="userSpaceOnUse"><stop stop-color="#ECDEEF"/><stop offset="1" stop-color="#E5DFED"/></linearGradient><linearGradient id="nmoacqi8oF" x1="53.5" y1="25" x2="53.5" y2="111" gradientUnits="userSpaceOnUse"><stop stop-color="#ECDEEF"/><stop offset="1" stop-color="#E5DFED"/></linearGradient><linearGradient id="fup46cl0iG" x1="53.5" y1="25" x2="53.5" y2="111" gradientUnits="userSpaceOnUse"><stop stop-color="#ECDEEF"/><stop offset="1" stop-color="#E5DFED"/></linearGradient><linearGradient id="xyp0voz2aH" x1="53.5" y1="25" x2="53.5" y2="111" gradientUnits="userSpaceOnUse"><stop stop-color="#ECDEEF"/><stop offset="1" stop-color="#E5DFED"/></linearGradient><linearGradient id="ughkfr8biI" x1="53.5" y1="25" x2="53.5" y2="111" gradientUnits="userSpaceOnUse"><stop stop-color="#ECDEEF"/><stop offset="1" stop-color="#E5DFED"/></linearGradient><linearGradient id="3f15h7f32J" x1="53.5" y1="25" x2="53.5" y2="111" gradientUnits="userSpaceOnUse"><stop stop-color="#ECDEEF"/><stop offset="1" stop-color="#E5DFED"/></linearGradient><linearGradient id="mk4ez7vuaK" x1="53.5" y1="25" x2="53.5" y2="111" gradientUnits="userSpaceOnUse"><stop stop-color="#ECDEEF"/><stop offset="1" stop-color="#E5DFED"/></linearGradient><linearGradient id="n338ullmfL" x1="53.5" y1="25" x2="53.5" y2="111" gradientUnits="userSpaceOnUse"><stop stop-color="#ECDEEF"/><stop offset="1" stop-color="#E5DFED"/></linearGradient><linearGradient id="t1hu6st92M" x1="53.5" y1="25" x2="53.5" y2="111" gradientUnits="userSpaceOnUse"><stop stop-color="#ECDEEF"/><stop offset="1" stop-color="#E5DFED"/></linearGradient><linearGradient id="zxbe703qqN" x1="53.5" y1="25" x2="53.5" y2="111" gradientUnits="userSpaceOnUse"><stop stop-color="#ECDEEF"/><stop offset="1" stop-color="#E5DFED"/></linearGradient><linearGradient id="fcocc25z4O" x1="53.5" y1="25" x2="53.5" y2="111" gradientUnits="userSpaceOnUse"><stop stop-color="#ECDEEF"/><stop offset="1" stop-color="#E5DFED"/></linearGradient><linearGradient id="j604m9781P" x1="53.5" y1="25" x2="53.5" y2="111" gradientUnits="userSpaceOnUse"><stop stop-color="#ECDEEF"/><stop offset="1" stop-color="#E5DFED"/></linearGradient><linearGradient id="sqt2ftl2vQ" x1="53.5" y1="25" x2="53.5" y2="111" gradientUnits="userSpaceOnUse"><stop stop-color="#ECDEEF"/><stop offset="1" stop-color="#E5DFED"/></linearGradient><linearGradient id="ahtia49q1R" x1="53.5" y1="25" x2="53.5" y2="111" gradientUnits="userSpaceOnUse"><stop stop-color="#ECDEEF"/><stop offset="1" stop-color="#E5DFED"/></linearGradient><linearGradient id="z7hmmfe92S" x1="53.5" y1="25" x2="53.5" y2="111" gradientUnits="userSpaceOnUse"><stop stop-color="#ECDEEF"/><stop offset="1" stop-color="#E5DFED"/></linearGradient><linearGradient id="6o2d19vdjT" x1="53.5" y1="25" x2="53.5" y2="111" gradientUnits="userSpaceOnUse"><stop stop-color="#ECDEEF"/><stop offset="1" stop-color="#E5DFED"/></linearGradient><linearGradient id="dj8qk33taU" x1="53.5" y1="25" x2="53.5" y2="111" gradientUnits="userSpaceOnUse"><stop stop-color="#ECDEEF"/><stop offset="1" stop-color="#E5DFED"/></linearGradient><linearGradient id="wtksobfdnV" x1="53.5" y1="25" x2="53.5" y2="111" gradientUnits="userSpaceOnUse"><stop stop-color="#ECDEEF"/><stop offset="1" stop-color="#E5DFED"/></linearGradient><linearGradient id="v1a386q6xW" x1="53.5" y1="25" x2="53.5" y2="111" gradientUnits="userSpaceOnUse"><stop stop-color="#ECDEEF"/><stop offset="1" stop-color="#E5DFED"/></linearGradient><linearGradient id="va59wk6j2X" x1="53.5" y1="25" x2="53.5" y2="111" gradientUnits="userSpaceOnUse"><stop stop-color="#ECDEEF"/><stop offset="1" stop-color="#E5DFED"/></linearGradient><linearGradient id="tuc25jgqsY" x1="53.5" y1="25" x2="53.5" y2="111" gradientUnits="userSpaceOnUse"><stop stop-color="#ECDEEF"/><stop offset="1" stop-color="#E5DFED"/></linearGradient><linearGradient id="edbya7kg8Z" x1="53.5" y1="25" x2="53.5" y2="111" gradientUnits="userSpaceOnUse"><stop stop-color="#ECDEEF"/><stop offset="1" stop-color="#E5DFED"/></linearGradient><linearGradient id="6jlspoqu7aa" x1="53.5" y1="25" x2="53.5" y2="111" gradientUnits="userSpaceOnUse"><stop stop-color="#ECDEEF"/><stop offset="1" stop-color="#E5DFED"/></linearGradient><linearGradient id="8q27rjz95ab" x1="53.5" y1="25" x2="53.5" y2="111" gradientUnits="userSpaceOnUse"><stop stop-color="#ECDEEF"/><stop offset="1" stop-color="#E5DFED"/></linearGradient><linearGradient id="hpfsnblbuac" x1="53.5" y1="25" x2="53.5" y2="111" gradientUnits="userSpaceOnUse"><stop stop-color="#ECDEEF"/><stop offset="1" stop-color="#E5DFED"/></linearGradient><linearGradient id="qnxf5ir4lad" x1="53.5" y1="25" x2="53.5" y2="111" gradientUnits="userSpaceOnUse"><stop stop-color="#ECDEEF"/><stop offset="1" stop-color="#E5DFED"/></linearGradient><linearGradient id="hip5226riae" x1="53.5" y1="25" x2="53.5" y2="111" gradientUnits="userSpaceOnUse"><stop stop-color="#ECDEEF"/><stop offset="1" stop-color="#E5DFED"/></linearGradient><linearGradient id="9f0sv0mvcaf" x1="53.5" y1="25" x2="53.5" y2="111" gradientUnits="userSpaceOnUse"><stop stop-color="#ECDEEF"/><stop offset="1" stop-color="#E5DFED"/></linearGradient><linearGradient id="klrz0f15hag" x1="53.5" y1="25" x2="53.5" y2="111" gradientUnits="userSpaceOnUse"><stop stop-color="#ECDEEF"/><stop offset="1" stop-color="#E5DFED"/></linearGradient><linearGradient id="inzuxwv6qah" x1="53.5" y1="25" x2="53.5" y2="111" gradientUnits="userSpaceOnUse"><stop stop-color="#ECDEEF"/><stop offset="1" stop-color="#E5DFED"/></linearGradient><linearGradient id="gcfhlnw25ai" x1="53.5" y1="25" x2="53.5" y2="111" gradientUnits="userSpaceOnUse"><stop stop-color="#ECDEEF"/><stop offset="1" stop-color="#E5DFED"/></linearGradient><linearGradient id="1ynsa92poaj" x1="53.5" y1="25" x2="53.5" y2="111" gradientUnits="userSpaceOnUse"><stop stop-color="#ECDEEF"/><stop offset="1" stop-color="#E5DFED"/></linearGradient><linearGradient id="p75qz9omcak" x1="53.5" y1="25" x2="53.5" y2="111" gradientUnits="userSpaceOnUse"><stop stop-color="#ECDEEF"/><stop offset="1" stop-color="#E5DFED"/></linearGradient><linearGradient id="ak5somqm7al" x1="53.5" y1="25" x2="53.5" y2="111" gradientUnits="userSpaceOnUse"><stop stop-color="#ECDEEF"/><stop offset="1" stop-color="#E5DFED"/></linearGradient><linearGradient id="dtd5j7ebfam" x1="53.5" y1="25" x2="53.5" y2="111" gradientUnits="userSpaceOnUse"><stop stop-color="#ECDEEF"/><stop offset="1" stop-color="#E5DFED"/></linearGradient><linearGradient id="5b1kgovl9an" x1="53.5" y1="25" x2="53.5" y2="111" gradientUnits="userSpaceOnUse"><stop stop-color="#ECDEEF"/><stop offset="1" stop-color="#E5DFED"/></linearGradient><linearGradient id="un4bl2zu5ao" x1="53.5" y1="25" x2="53.5" y2="111" gradientUnits="userSpaceOnUse"><stop stop-color="#ECDEEF"/><stop offset="1" stop-color="#E5DFED"/></linearGradient><linearGradient id="01yjgls3wap" x1="53.5" y1="25" x2="53.5" y2="111" gradientUnits="userSpaceOnUse"><stop stop-color="#ECDEEF"/><stop offset="1" stop-color="#E5DFED"/></linearGradient><linearGradient id="szefzjzz4aq" x1="53.5" y1="25" x2="53.5" y2="111" gradientUnits="userSpaceOnUse"><stop stop-color="#ECDEEF"/><stop offset="1" stop-color="#E5DFED"/></linearGradient><linearGradient id="2duj9dr2war" x1="53.5" y1="25" x2="53.5" y2="111" gradientUnits="userSpaceOnUse"><stop stop-color="#ECDEEF"/><stop offset="1" stop-color="#E5DFED"/></linearGradient><linearGradient id="obzcqky7aas" x1="53.5" y1="25" x2="53.5" y2="111" gradientUnits="userSpaceOnUse"><stop stop-color="#ECDEEF"/><stop offset="1" stop-color="#E5DFED"/></linearGradient><linearGradient id="1aw7adkhdat" x1="53.5" y1="25" x2="53.5" y2="111" gradientUnits="userSpaceOnUse"><stop stop-color="#ECDEEF"/><stop offset="1" stop-color="#E5DFED"/></linearGradient><linearGradient id="kqvc5yd74au" x1="53.5" y1="25" x2="53.5" y2="111" gradientUnits="userSpaceOnUse"><stop stop-color="#ECDEEF"/><stop offset="1" stop-color="#E5DFED"/></linearGradient><linearGradient id="wjwmi8wgxav" x1="53.5" y1="25" x2="53.5" y2="111" gradientUnits="userSpaceOnUse"><stop stop-color="#ECDEEF"/><stop offset="1" stop-color="#E5DFED"/></linearGradient><linearGradient id="vdzmo79t8aw" x1="53.5" y1="25" x2="53.5" y2="111" gradientUnits="userSpaceOnUse"><stop stop-color="#ECDEEF"/><stop offset="1" stop-color="#E5DFED"/></linearGradient><linearGradient id="u8ykjubanax" x1="53.5" y1="25" x2="53.5" y2="111" gradientUnits="userSpaceOnUse"><stop stop-color="#ECDEEF"/><stop offset="1" stop-color="#E5DFED"/></linearGradient><linearGradient id="80zt9qeniay" x1="53.5" y1="25" x2="53.5" y2="111" gradientUnits="userSpaceOnUse"><stop stop-color="#ECDEEF"/><stop offset="1" stop-color="#E5DFED"/></linearGradient><linearGradient id="j5243gzfxaz" x1="53.5" y1="25" x2="53.5" y2="111" gradientUnits="userSpaceOnUse"><stop stop-color="#ECDEEF"/><stop offset="1" stop-color="#E5DFED"/></linearGradient><linearGradient id="yrw3kw9v7aA" x1="53.5" y1="25" x2="53.5" y2="111" gradientUnits="userSpaceOnUse"><stop stop-color="#ECDEEF"/><stop offset="1" stop-color="#E5DFED"/></linearGradient><linearGradient id="kp1j18p39aB" x1="53.5" y1="25" x2="53.5" y2="111" gradientUnits="userSpaceOnUse"><stop stop-color="#ECDEEF"/><stop offset="1" stop-color="#E5DFED"/></linearGradient><linearGradient id="0bw0gihqoaC" x1="53.5" y1="25" x2="53.5" y2="111" gradientUnits="userSpaceOnUse"><stop stop-color="#ECDEEF"/><stop offset="1" stop-color="#E5DFED"/></linearGradient><linearGradient id="dh03wkixnaD" x1="53.5" y1="25" x2="53.5" y2="111" gradientUnits="userSpaceOnUse"><stop stop-color="#ECDEEF"/><stop offset="1" stop-color="#E5DFED"/></linearGradient><linearGradient id="3gw5ysj5vaE" x1="53.5" y1="25" x2="53.5" y2="111" gradientUnits="userSpaceOnUse"><stop stop-color="#ECDEEF"/><stop offset="1" stop-color="#E5DFED"/></linearGradient><linearGradient id="ncie6aik9aF" x1="53.5" y1="25" x2="53.5" y2="111" gradientUnits="userSpaceOnUse"><stop stop-color="#ECDEEF"/><stop offset="1" stop-color="#E5DFED"/></linearGradient><linearGradient id="zsha232b4aG" x1="53.5" y1="25" x2="53.5" y2="111" gradientUnits="userSpaceOnUse"><stop stop-color="#ECDEEF"/><stop offset="1" stop-color="#E5DFED"/></linearGradient><linearGradient id="glmbe7284aH" x1="53.5" y1="25" x2="53.5" y2="111" gradientUnits="userSpaceOnUse"><stop stop-color="#ECDEEF"/><stop offset="1" stop-color="#E5DFED"/></linearGradient><linearGradient id="ngm0ffn84aI" x1="53.5" y1="25" x2="53.5" y2="111" gradientUnits="userSpaceOnUse"><stop stop-color="#ECDEEF"/><stop offset="1" stop-color="#E5DFED"/></linearGradient><linearGradient id="5zpux0judaJ" x1="53.5" y1="25" x2="53.5" y2="111" gradientUnits="userSpaceOnUse"><stop stop-color="#ECDEEF"/><stop offset="1" stop-color="#E5DFED"/></linearGradient><linearGradient id="pu2ejv97gaK" x1="53.5" y1="25" x2="53.5" y2="111" gradientUnits="userSpaceOnUse"><stop stop-color="#ECDEEF"/><stop offset="1" stop-color="#E5DFED"/></linearGradient><linearGradient id="fisteos9waM" x1="110" y1="63" x2="152.835" y2="18.156" gradientUnits="userSpaceOnUse"><stop stop-color="#D2C9E8"/><stop offset="1" stop-color="#FBD0EF"/></linearGradient><linearGradient id="fgwx5vzmgaP" x1="49" y1="63" x2="91.835" y2="18.156" gradientUnits="userSpaceOnUse"><stop stop-color="#D2C9E8"/><stop offset="1" stop-color="#FBD0EF"/></linearGradient><linearGradient id="k88jkc1ckaS" x1="49" y1="111" x2="91.835" y2="66.156" gradientUnits="userSpaceOnUse"><stop stop-color="#D2C9E8"/><stop offset="1" stop-color="#FBD0EF"/></linearGradient><linearGradient id="p0xc24an0aU" x1="110" y1="111" x2="152.835" y2="66.156" gradientUnits="userSpaceOnUse"><stop stop-color="#D2C9E8"/><stop offset="1" stop-color="#FBD0EF"/></linearGradient><filter id="6j9j16zllaL" x="108" y="25" width="52" height="40" filterUnits="userSpaceOnUse" color-interpolation-filters="sRGB"><feFlood flood-opacity="0" result="BackgroundImageFix"/><feColorMatrix in="SourceAlpha" values="0 0 0 0 0 0 0 0 0 0 0 0 0 0 0 0 0 0 127 0" result="hardAlpha"/><feOffset dx="-2" dy="2"/><feComposite in2="hardAlpha" operator="out"/><feColorMatrix values="0 0 0 0 0 0 0 0 0 0 0 0 0 0 0 0 0 0 0.02 0"/><feBlend in2="BackgroundImageFix" result="effect1_dropShadow_118_3193"/><feBlend in="SourceGraphic" in2="effect1_dropShadow_118_3193" result="shape"/></filter><filter id="4lbapwgrmaN" x="47" y="25" width="52" height="40" filterUnits="userSpaceOnUse" color-interpolation-filters="sRGB"><feFlood flood-opacity="0" result="BackgroundImageFix"/><feColorMatrix in="SourceAlpha" values="0 0 0 0 0 0 0 0 0 0 0 0 0 0 0 0 0 0 127 0" result="hardAlpha"/><feOffset dx="-2" dy="2"/><feComposite in2="hardAlpha" operator="out"/><feColorMatrix values="0 0 0 0 0 0 0 0 0 0 0 0 0 0 0 0 0 0 0.02 0"/><feBlend in2="BackgroundImageFix" result="effect1_dropShadow_118_3193"/><feBlend in="SourceGraphic" in2="effect1_dropShadow_118_3193" result="shape"/></filter><filter id="4am8r5ov8aQ" x="47" y="73" width="52" height="40" filterUnits="userSpaceOnUse" color-interpolation-filters="sRGB"><feFlood flood-opacity="0" result="BackgroundImageFix"/><feColorMatrix in="SourceAlpha" values="0 0 0 0 0 0 0 0 0 0 0 0 0 0 0 0 0 0 127 0" result="hardAlpha"/><feOffset dx="-2" dy="2"/><feComposite in2="hardAlpha" operator="out"/><feColorMatrix values="0 0 0 0 0 0 0 0 0 0 0 0 0 0 0 0 0 0 0.02 0"/><feBlend in2="BackgroundImageFix" result="effect1_dropShadow_118_3193"/><feBlend in="SourceGraphic" in2="effect1_dropShadow_118_3193" result="shape"/></filter><filter id="i7xx7eb9kaT" x="108" y="73" width="52" height="40" filterUnits="userSpaceOnUse" color-interpolation-filters="sRGB"><feFlood flood-opacity="0" result="BackgroundImageFix"/><feColorMatrix in="SourceAlpha" values="0 0 0 0 0 0 0 0 0 0 0 0 0 0 0 0 0 0 127 0" result="hardAlpha"/><feOffset dx="-2" dy="2"/><feComposite in2="hardAlpha" operator="out"/><feColorMatrix values="0 0 0 0 0 0 0 0 0 0 0 0 0 0 0 0 0 0 0.02 0"/><feBlend in2="BackgroundImageFix" result="effect1_dropShadow_118_3193"/><feBlend in="SourceGraphic" in2="effect1_dropShadow_118_3193" result="shape"/></filter><clipPath id="saa0r3b1uaO"><path fill="#fff" transform="translate(64 34)" d="M0 0h20v20H0z"/></clipPath><clipPath id="yeppd788aaR"><path fill="#fff" transform="translate(64 82)" d="M0 0h20v20H0z"/></clipPath></defs></svg>